<mxfile host="app.diagrams.net" agent="Mozilla/5.0 (Windows NT 10.0; Win64; x64) AppleWebKit/537.36 (KHTML, like Gecko) Chrome/128.0.0.0 Safari/537.36" version="24.7.16">
  <diagram id="C5RBs43oDa-KdzZeNtuy" name="Page-1">
    <mxGraphModel dx="2261" dy="1915" grid="1" gridSize="10" guides="1" tooltips="1" connect="1" arrows="1" fold="1" page="1" pageScale="1" pageWidth="827" pageHeight="1169" math="0" shadow="0">
      <root>
        <mxCell id="WIyWlLk6GJQsqaUBKTNV-0" />
        <mxCell id="WIyWlLk6GJQsqaUBKTNV-1" parent="WIyWlLk6GJQsqaUBKTNV-0" />
        <mxCell id="9vx1bPAwFdFPy_VraiTr-21" style="edgeStyle=orthogonalEdgeStyle;rounded=0;orthogonalLoop=1;jettySize=auto;html=1;exitX=0.5;exitY=1;exitDx=0;exitDy=0;entryX=0;entryY=0.5;entryDx=0;entryDy=0;" edge="1" parent="WIyWlLk6GJQsqaUBKTNV-1" source="WIyWlLk6GJQsqaUBKTNV-7" target="9vx1bPAwFdFPy_VraiTr-20">
          <mxGeometry relative="1" as="geometry">
            <mxPoint x="140" y="640" as="targetPoint" />
          </mxGeometry>
        </mxCell>
        <mxCell id="WIyWlLk6GJQsqaUBKTNV-7" value="Non c&#39;è bisogno della&lt;div&gt;richiesta al database&lt;/div&gt;" style="rounded=1;whiteSpace=wrap;html=1;fontSize=12;glass=0;strokeWidth=1;shadow=0;" parent="WIyWlLk6GJQsqaUBKTNV-1" vertex="1">
          <mxGeometry x="80" y="324" width="120" height="40" as="geometry" />
        </mxCell>
        <mxCell id="9vx1bPAwFdFPy_VraiTr-0" value="" style="strokeWidth=2;html=1;shape=mxgraph.flowchart.start_2;whiteSpace=wrap;fillColor=#000000;" vertex="1" parent="WIyWlLk6GJQsqaUBKTNV-1">
          <mxGeometry x="330" width="100" height="100" as="geometry" />
        </mxCell>
        <mxCell id="9vx1bPAwFdFPy_VraiTr-5" style="edgeStyle=orthogonalEdgeStyle;rounded=0;orthogonalLoop=1;jettySize=auto;html=1;exitX=0;exitY=0.5;exitDx=0;exitDy=0;exitPerimeter=0;" edge="1" parent="WIyWlLk6GJQsqaUBKTNV-1" source="9vx1bPAwFdFPy_VraiTr-3">
          <mxGeometry relative="1" as="geometry">
            <mxPoint x="200" y="200" as="targetPoint" />
          </mxGeometry>
        </mxCell>
        <mxCell id="9vx1bPAwFdFPy_VraiTr-7" style="edgeStyle=orthogonalEdgeStyle;rounded=0;orthogonalLoop=1;jettySize=auto;html=1;exitX=0.5;exitY=1;exitDx=0;exitDy=0;exitPerimeter=0;" edge="1" parent="WIyWlLk6GJQsqaUBKTNV-1" source="9vx1bPAwFdFPy_VraiTr-3">
          <mxGeometry relative="1" as="geometry">
            <mxPoint x="380" y="295" as="targetPoint" />
          </mxGeometry>
        </mxCell>
        <mxCell id="9vx1bPAwFdFPy_VraiTr-3" value="L&#39;utente è&amp;nbsp;&lt;div&gt;loggato?&lt;/div&gt;" style="strokeWidth=2;html=1;shape=mxgraph.flowchart.decision;whiteSpace=wrap;" vertex="1" parent="WIyWlLk6GJQsqaUBKTNV-1">
          <mxGeometry x="330" y="150" width="100" height="100" as="geometry" />
        </mxCell>
        <mxCell id="9vx1bPAwFdFPy_VraiTr-4" style="edgeStyle=orthogonalEdgeStyle;rounded=0;orthogonalLoop=1;jettySize=auto;html=1;exitX=0.5;exitY=1;exitDx=0;exitDy=0;exitPerimeter=0;entryX=0.5;entryY=0;entryDx=0;entryDy=0;entryPerimeter=0;" edge="1" parent="WIyWlLk6GJQsqaUBKTNV-1" source="9vx1bPAwFdFPy_VraiTr-0" target="9vx1bPAwFdFPy_VraiTr-3">
          <mxGeometry relative="1" as="geometry" />
        </mxCell>
        <mxCell id="9vx1bPAwFdFPy_VraiTr-16" style="edgeStyle=orthogonalEdgeStyle;rounded=0;orthogonalLoop=1;jettySize=auto;html=1;exitX=0.5;exitY=1;exitDx=0;exitDy=0;entryX=0.5;entryY=0;entryDx=0;entryDy=0;" edge="1" parent="WIyWlLk6GJQsqaUBKTNV-1" source="9vx1bPAwFdFPy_VraiTr-8" target="WIyWlLk6GJQsqaUBKTNV-7">
          <mxGeometry relative="1" as="geometry" />
        </mxCell>
        <mxCell id="9vx1bPAwFdFPy_VraiTr-8" value="Non può creare liste" style="rounded=1;whiteSpace=wrap;html=1;fontSize=12;glass=0;strokeWidth=1;shadow=0;" vertex="1" parent="WIyWlLk6GJQsqaUBKTNV-1">
          <mxGeometry x="80" y="180" width="120" height="40" as="geometry" />
        </mxCell>
        <mxCell id="9vx1bPAwFdFPy_VraiTr-9" value="No" style="text;html=1;align=center;verticalAlign=middle;resizable=0;points=[];autosize=1;strokeColor=none;fillColor=none;" vertex="1" parent="WIyWlLk6GJQsqaUBKTNV-1">
          <mxGeometry x="260" y="178" width="40" height="30" as="geometry" />
        </mxCell>
        <mxCell id="9vx1bPAwFdFPy_VraiTr-10" value="Si" style="text;html=1;align=center;verticalAlign=middle;resizable=0;points=[];autosize=1;strokeColor=none;fillColor=none;" vertex="1" parent="WIyWlLk6GJQsqaUBKTNV-1">
          <mxGeometry x="384" y="250" width="30" height="30" as="geometry" />
        </mxCell>
        <mxCell id="9vx1bPAwFdFPy_VraiTr-12" style="edgeStyle=orthogonalEdgeStyle;rounded=0;orthogonalLoop=1;jettySize=auto;html=1;exitX=0.5;exitY=1;exitDx=0;exitDy=0;exitPerimeter=0;" edge="1" parent="WIyWlLk6GJQsqaUBKTNV-1" source="9vx1bPAwFdFPy_VraiTr-11">
          <mxGeometry relative="1" as="geometry">
            <mxPoint x="382" y="490" as="targetPoint" />
          </mxGeometry>
        </mxCell>
        <mxCell id="9vx1bPAwFdFPy_VraiTr-13" style="edgeStyle=orthogonalEdgeStyle;rounded=0;orthogonalLoop=1;jettySize=auto;html=1;exitX=0;exitY=0.5;exitDx=0;exitDy=0;exitPerimeter=0;entryX=1;entryY=0.5;entryDx=0;entryDy=0;" edge="1" parent="WIyWlLk6GJQsqaUBKTNV-1" source="9vx1bPAwFdFPy_VraiTr-11" target="WIyWlLk6GJQsqaUBKTNV-7">
          <mxGeometry relative="1" as="geometry">
            <mxPoint x="220" y="344" as="targetPoint" />
          </mxGeometry>
        </mxCell>
        <mxCell id="9vx1bPAwFdFPy_VraiTr-11" value="Ha creato&amp;nbsp;&lt;div&gt;delle liste?&lt;/div&gt;" style="strokeWidth=2;html=1;shape=mxgraph.flowchart.decision;whiteSpace=wrap;" vertex="1" parent="WIyWlLk6GJQsqaUBKTNV-1">
          <mxGeometry x="332" y="294" width="100" height="100" as="geometry" />
        </mxCell>
        <mxCell id="9vx1bPAwFdFPy_VraiTr-14" value="No" style="text;html=1;align=center;verticalAlign=middle;resizable=0;points=[];autosize=1;strokeColor=none;fillColor=none;" vertex="1" parent="WIyWlLk6GJQsqaUBKTNV-1">
          <mxGeometry x="260" y="308" width="40" height="30" as="geometry" />
        </mxCell>
        <mxCell id="9vx1bPAwFdFPy_VraiTr-15" value="Sì" style="text;html=1;align=center;verticalAlign=middle;resizable=0;points=[];autosize=1;strokeColor=none;fillColor=none;" vertex="1" parent="WIyWlLk6GJQsqaUBKTNV-1">
          <mxGeometry x="390" y="388" width="30" height="30" as="geometry" />
        </mxCell>
        <mxCell id="9vx1bPAwFdFPy_VraiTr-19" style="edgeStyle=orthogonalEdgeStyle;rounded=0;orthogonalLoop=1;jettySize=auto;html=1;exitX=0.5;exitY=1;exitDx=0;exitDy=0;" edge="1" parent="WIyWlLk6GJQsqaUBKTNV-1" source="9vx1bPAwFdFPy_VraiTr-18">
          <mxGeometry relative="1" as="geometry">
            <mxPoint x="380" y="610" as="targetPoint" />
          </mxGeometry>
        </mxCell>
        <mxCell id="9vx1bPAwFdFPy_VraiTr-18" value="Manda la richiesta&lt;div&gt;al database&lt;/div&gt;" style="rounded=1;whiteSpace=wrap;html=1;fontSize=12;glass=0;strokeWidth=1;shadow=0;" vertex="1" parent="WIyWlLk6GJQsqaUBKTNV-1">
          <mxGeometry x="320" y="490" width="120" height="40" as="geometry" />
        </mxCell>
        <mxCell id="9vx1bPAwFdFPy_VraiTr-22" style="edgeStyle=orthogonalEdgeStyle;rounded=0;orthogonalLoop=1;jettySize=auto;html=1;exitX=0.5;exitY=1;exitDx=0;exitDy=0;" edge="1" parent="WIyWlLk6GJQsqaUBKTNV-1" source="9vx1bPAwFdFPy_VraiTr-20">
          <mxGeometry relative="1" as="geometry">
            <mxPoint x="382" y="740" as="targetPoint" />
          </mxGeometry>
        </mxCell>
        <mxCell id="9vx1bPAwFdFPy_VraiTr-20" value="Manda la richiesta http all&#39;API&amp;nbsp;" style="rounded=1;whiteSpace=wrap;html=1;fontSize=12;glass=0;strokeWidth=1;shadow=0;" vertex="1" parent="WIyWlLk6GJQsqaUBKTNV-1">
          <mxGeometry x="322" y="610" width="120" height="40" as="geometry" />
        </mxCell>
        <mxCell id="9vx1bPAwFdFPy_VraiTr-24" style="edgeStyle=orthogonalEdgeStyle;rounded=0;orthogonalLoop=1;jettySize=auto;html=1;exitX=0;exitY=0.5;exitDx=0;exitDy=0;exitPerimeter=0;" edge="1" parent="WIyWlLk6GJQsqaUBKTNV-1" source="9vx1bPAwFdFPy_VraiTr-23">
          <mxGeometry relative="1" as="geometry">
            <mxPoint x="170" y="790" as="targetPoint" />
          </mxGeometry>
        </mxCell>
        <mxCell id="9vx1bPAwFdFPy_VraiTr-26" style="edgeStyle=orthogonalEdgeStyle;rounded=0;orthogonalLoop=1;jettySize=auto;html=1;exitX=0.5;exitY=1;exitDx=0;exitDy=0;exitPerimeter=0;" edge="1" parent="WIyWlLk6GJQsqaUBKTNV-1" source="9vx1bPAwFdFPy_VraiTr-23">
          <mxGeometry relative="1" as="geometry">
            <mxPoint x="382" y="950" as="targetPoint" />
          </mxGeometry>
        </mxCell>
        <mxCell id="9vx1bPAwFdFPy_VraiTr-23" value="Ci sono&amp;nbsp;&lt;div&gt;dei filtri&lt;div&gt;attivi?&lt;/div&gt;&lt;/div&gt;" style="strokeWidth=2;html=1;shape=mxgraph.flowchart.decision;whiteSpace=wrap;" vertex="1" parent="WIyWlLk6GJQsqaUBKTNV-1">
          <mxGeometry x="332" y="740" width="100" height="100" as="geometry" />
        </mxCell>
        <mxCell id="9vx1bPAwFdFPy_VraiTr-25" value="No" style="text;html=1;align=center;verticalAlign=middle;resizable=0;points=[];autosize=1;strokeColor=none;fillColor=none;" vertex="1" parent="WIyWlLk6GJQsqaUBKTNV-1">
          <mxGeometry x="290" y="760" width="40" height="30" as="geometry" />
        </mxCell>
        <mxCell id="9vx1bPAwFdFPy_VraiTr-27" value="Si" style="text;html=1;align=center;verticalAlign=middle;resizable=0;points=[];autosize=1;strokeColor=none;fillColor=none;" vertex="1" parent="WIyWlLk6GJQsqaUBKTNV-1">
          <mxGeometry x="385" y="848" width="30" height="30" as="geometry" />
        </mxCell>
        <mxCell id="9vx1bPAwFdFPy_VraiTr-28" value="Non bisogna fare nessuna richiesta" style="rounded=1;whiteSpace=wrap;html=1;fontSize=12;glass=0;strokeWidth=1;shadow=0;" vertex="1" parent="WIyWlLk6GJQsqaUBKTNV-1">
          <mxGeometry x="50" y="770" width="120" height="40" as="geometry" />
        </mxCell>
        <mxCell id="9vx1bPAwFdFPy_VraiTr-31" style="edgeStyle=orthogonalEdgeStyle;rounded=0;orthogonalLoop=1;jettySize=auto;html=1;exitX=0.5;exitY=1;exitDx=0;exitDy=0;" edge="1" parent="WIyWlLk6GJQsqaUBKTNV-1" source="9vx1bPAwFdFPy_VraiTr-30">
          <mxGeometry relative="1" as="geometry">
            <mxPoint x="380" y="1060" as="targetPoint" />
          </mxGeometry>
        </mxCell>
        <mxCell id="9vx1bPAwFdFPy_VraiTr-30" value="Mando una richiesta&lt;div&gt;all&#39;API in base ai filtri&lt;/div&gt;" style="rounded=1;whiteSpace=wrap;html=1;fontSize=12;glass=0;strokeWidth=1;shadow=0;" vertex="1" parent="WIyWlLk6GJQsqaUBKTNV-1">
          <mxGeometry x="320" y="950" width="120" height="40" as="geometry" />
        </mxCell>
        <mxCell id="9vx1bPAwFdFPy_VraiTr-35" style="edgeStyle=orthogonalEdgeStyle;rounded=0;orthogonalLoop=1;jettySize=auto;html=1;exitX=0;exitY=0.5;exitDx=0;exitDy=0;exitPerimeter=0;" edge="1" parent="WIyWlLk6GJQsqaUBKTNV-1" source="9vx1bPAwFdFPy_VraiTr-34">
          <mxGeometry relative="1" as="geometry">
            <mxPoint x="160" y="1110" as="targetPoint" />
          </mxGeometry>
        </mxCell>
        <mxCell id="9vx1bPAwFdFPy_VraiTr-36" style="edgeStyle=orthogonalEdgeStyle;rounded=0;orthogonalLoop=1;jettySize=auto;html=1;exitX=0.5;exitY=1;exitDx=0;exitDy=0;exitPerimeter=0;" edge="1" parent="WIyWlLk6GJQsqaUBKTNV-1" source="9vx1bPAwFdFPy_VraiTr-34">
          <mxGeometry relative="1" as="geometry">
            <mxPoint x="382" y="1280" as="targetPoint" />
          </mxGeometry>
        </mxCell>
        <mxCell id="9vx1bPAwFdFPy_VraiTr-34" value="L&#39;utente ha cliccato&amp;nbsp;&lt;span style=&quot;background-color: initial;&quot;&gt;su&amp;nbsp;&lt;/span&gt;&lt;span style=&quot;background-color: initial;&quot;&gt;un gioco?&lt;/span&gt;" style="strokeWidth=2;html=1;shape=mxgraph.flowchart.decision;whiteSpace=wrap;" vertex="1" parent="WIyWlLk6GJQsqaUBKTNV-1">
          <mxGeometry x="332" y="1060" width="100" height="100" as="geometry" />
        </mxCell>
        <mxCell id="9vx1bPAwFdFPy_VraiTr-37" value="Si" style="text;html=1;align=center;verticalAlign=middle;resizable=0;points=[];autosize=1;strokeColor=none;fillColor=none;" vertex="1" parent="WIyWlLk6GJQsqaUBKTNV-1">
          <mxGeometry x="385" y="1168" width="30" height="30" as="geometry" />
        </mxCell>
        <mxCell id="9vx1bPAwFdFPy_VraiTr-38" value="No" style="text;html=1;align=center;verticalAlign=middle;resizable=0;points=[];autosize=1;strokeColor=none;fillColor=none;" vertex="1" parent="WIyWlLk6GJQsqaUBKTNV-1">
          <mxGeometry x="280" y="1068" width="40" height="30" as="geometry" />
        </mxCell>
        <mxCell id="9vx1bPAwFdFPy_VraiTr-39" style="edgeStyle=orthogonalEdgeStyle;rounded=0;orthogonalLoop=1;jettySize=auto;html=1;exitX=0.5;exitY=1;exitDx=0;exitDy=0;entryX=0.5;entryY=0;entryDx=0;entryDy=0;entryPerimeter=0;" edge="1" parent="WIyWlLk6GJQsqaUBKTNV-1" source="9vx1bPAwFdFPy_VraiTr-28" target="9vx1bPAwFdFPy_VraiTr-34">
          <mxGeometry relative="1" as="geometry">
            <Array as="points">
              <mxPoint x="110" y="1060" />
            </Array>
          </mxGeometry>
        </mxCell>
        <mxCell id="9vx1bPAwFdFPy_VraiTr-55" style="edgeStyle=orthogonalEdgeStyle;rounded=0;orthogonalLoop=1;jettySize=auto;html=1;exitX=0.5;exitY=1;exitDx=0;exitDy=0;" edge="1" parent="WIyWlLk6GJQsqaUBKTNV-1" source="9vx1bPAwFdFPy_VraiTr-40">
          <mxGeometry relative="1" as="geometry">
            <mxPoint x="382" y="1420" as="targetPoint" />
          </mxGeometry>
        </mxCell>
        <mxCell id="9vx1bPAwFdFPy_VraiTr-40" value="Manda una richiesta&lt;div&gt;all&#39;API in base al gioco&lt;/div&gt;" style="rounded=1;whiteSpace=wrap;html=1;fontSize=12;glass=0;strokeWidth=1;shadow=0;" vertex="1" parent="WIyWlLk6GJQsqaUBKTNV-1">
          <mxGeometry x="322" y="1280" width="120" height="40" as="geometry" />
        </mxCell>
        <mxCell id="9vx1bPAwFdFPy_VraiTr-43" style="edgeStyle=orthogonalEdgeStyle;rounded=0;orthogonalLoop=1;jettySize=auto;html=1;exitX=0.5;exitY=1;exitDx=0;exitDy=0;" edge="1" parent="WIyWlLk6GJQsqaUBKTNV-1" source="9vx1bPAwFdFPy_VraiTr-42">
          <mxGeometry relative="1" as="geometry">
            <mxPoint x="100" y="1340" as="targetPoint" />
          </mxGeometry>
        </mxCell>
        <mxCell id="9vx1bPAwFdFPy_VraiTr-42" value="Nessuna richiesta" style="rounded=1;whiteSpace=wrap;html=1;fontSize=12;glass=0;strokeWidth=1;shadow=0;" vertex="1" parent="WIyWlLk6GJQsqaUBKTNV-1">
          <mxGeometry x="40" y="1098" width="120" height="40" as="geometry" />
        </mxCell>
        <mxCell id="9vx1bPAwFdFPy_VraiTr-45" style="edgeStyle=orthogonalEdgeStyle;rounded=0;orthogonalLoop=1;jettySize=auto;html=1;exitX=0.5;exitY=1;exitDx=0;exitDy=0;exitPerimeter=0;" edge="1" parent="WIyWlLk6GJQsqaUBKTNV-1" source="9vx1bPAwFdFPy_VraiTr-44">
          <mxGeometry relative="1" as="geometry">
            <mxPoint x="100" y="1560" as="targetPoint" />
          </mxGeometry>
        </mxCell>
        <mxCell id="9vx1bPAwFdFPy_VraiTr-47" style="edgeStyle=orthogonalEdgeStyle;rounded=0;orthogonalLoop=1;jettySize=auto;html=1;exitX=0;exitY=0.5;exitDx=0;exitDy=0;exitPerimeter=0;" edge="1" parent="WIyWlLk6GJQsqaUBKTNV-1" source="9vx1bPAwFdFPy_VraiTr-44">
          <mxGeometry relative="1" as="geometry">
            <mxPoint x="-60" y="1390" as="targetPoint" />
          </mxGeometry>
        </mxCell>
        <mxCell id="9vx1bPAwFdFPy_VraiTr-44" value="L&#39;utente&amp;nbsp;&lt;div&gt;vuole&lt;div&gt;creare&amp;nbsp;&lt;/div&gt;&lt;div&gt;una lista?&lt;/div&gt;&lt;/div&gt;" style="strokeWidth=2;html=1;shape=mxgraph.flowchart.decision;whiteSpace=wrap;" vertex="1" parent="WIyWlLk6GJQsqaUBKTNV-1">
          <mxGeometry x="50" y="1340" width="100" height="100" as="geometry" />
        </mxCell>
        <mxCell id="9vx1bPAwFdFPy_VraiTr-48" value="No" style="text;html=1;align=center;verticalAlign=middle;resizable=0;points=[];autosize=1;strokeColor=none;fillColor=none;" vertex="1" parent="WIyWlLk6GJQsqaUBKTNV-1">
          <mxGeometry x="-10" y="1348" width="40" height="30" as="geometry" />
        </mxCell>
        <mxCell id="9vx1bPAwFdFPy_VraiTr-49" value="Si" style="text;html=1;align=center;verticalAlign=middle;resizable=0;points=[];autosize=1;strokeColor=none;fillColor=none;" vertex="1" parent="WIyWlLk6GJQsqaUBKTNV-1">
          <mxGeometry x="105" y="1438" width="30" height="30" as="geometry" />
        </mxCell>
        <mxCell id="9vx1bPAwFdFPy_VraiTr-54" style="edgeStyle=orthogonalEdgeStyle;rounded=0;orthogonalLoop=1;jettySize=auto;html=1;exitX=0.5;exitY=1;exitDx=0;exitDy=0;entryX=0.5;entryY=0;entryDx=0;entryDy=0;entryPerimeter=0;" edge="1" parent="WIyWlLk6GJQsqaUBKTNV-1" source="9vx1bPAwFdFPy_VraiTr-52" target="9vx1bPAwFdFPy_VraiTr-81">
          <mxGeometry relative="1" as="geometry">
            <mxPoint x="-120" y="1775" as="targetPoint" />
            <Array as="points">
              <mxPoint x="-120" y="1770" />
            </Array>
          </mxGeometry>
        </mxCell>
        <mxCell id="9vx1bPAwFdFPy_VraiTr-52" value="Nessuna richiesta" style="rounded=1;whiteSpace=wrap;html=1;fontSize=12;glass=0;strokeWidth=1;shadow=0;" vertex="1" parent="WIyWlLk6GJQsqaUBKTNV-1">
          <mxGeometry x="-180" y="1370" width="120" height="40" as="geometry" />
        </mxCell>
        <mxCell id="9vx1bPAwFdFPy_VraiTr-80" style="edgeStyle=orthogonalEdgeStyle;rounded=0;orthogonalLoop=1;jettySize=auto;html=1;exitX=0.5;exitY=1;exitDx=0;exitDy=0;entryX=0.5;entryY=0;entryDx=0;entryDy=0;entryPerimeter=0;" edge="1" parent="WIyWlLk6GJQsqaUBKTNV-1" source="9vx1bPAwFdFPy_VraiTr-53" target="9vx1bPAwFdFPy_VraiTr-81">
          <mxGeometry relative="1" as="geometry">
            <mxPoint x="100" y="1770" as="targetPoint" />
            <Array as="points">
              <mxPoint x="100" y="1685" />
              <mxPoint x="101" y="1685" />
              <mxPoint x="101" y="1770" />
            </Array>
          </mxGeometry>
        </mxCell>
        <mxCell id="9vx1bPAwFdFPy_VraiTr-53" value="Manda nome lista&lt;div&gt;al database e&lt;/div&gt;&lt;div&gt;aggiungo riga&lt;/div&gt;" style="rounded=1;whiteSpace=wrap;html=1;fontSize=12;glass=0;strokeWidth=1;shadow=0;" vertex="1" parent="WIyWlLk6GJQsqaUBKTNV-1">
          <mxGeometry x="40" y="1560" width="120" height="40" as="geometry" />
        </mxCell>
        <mxCell id="9vx1bPAwFdFPy_VraiTr-57" style="edgeStyle=orthogonalEdgeStyle;rounded=0;orthogonalLoop=1;jettySize=auto;html=1;exitX=0.5;exitY=1;exitDx=0;exitDy=0;" edge="1" parent="WIyWlLk6GJQsqaUBKTNV-1" source="9vx1bPAwFdFPy_VraiTr-56">
          <mxGeometry relative="1" as="geometry">
            <mxPoint x="382" y="1550" as="targetPoint" />
          </mxGeometry>
        </mxCell>
        <mxCell id="9vx1bPAwFdFPy_VraiTr-56" value="Carica l&#39;interfaccia&lt;div&gt;per il gioco&lt;/div&gt;" style="rounded=1;whiteSpace=wrap;html=1;fontSize=12;glass=0;strokeWidth=1;shadow=0;" vertex="1" parent="WIyWlLk6GJQsqaUBKTNV-1">
          <mxGeometry x="322" y="1420" width="120" height="40" as="geometry" />
        </mxCell>
        <mxCell id="9vx1bPAwFdFPy_VraiTr-59" style="edgeStyle=orthogonalEdgeStyle;rounded=0;orthogonalLoop=1;jettySize=auto;html=1;exitX=1;exitY=0.5;exitDx=0;exitDy=0;exitPerimeter=0;" edge="1" parent="WIyWlLk6GJQsqaUBKTNV-1" source="9vx1bPAwFdFPy_VraiTr-58">
          <mxGeometry relative="1" as="geometry">
            <mxPoint x="610" y="1600" as="targetPoint" />
          </mxGeometry>
        </mxCell>
        <mxCell id="9vx1bPAwFdFPy_VraiTr-61" style="edgeStyle=orthogonalEdgeStyle;rounded=0;orthogonalLoop=1;jettySize=auto;html=1;exitX=0.5;exitY=1;exitDx=0;exitDy=0;exitPerimeter=0;" edge="1" parent="WIyWlLk6GJQsqaUBKTNV-1" source="9vx1bPAwFdFPy_VraiTr-58">
          <mxGeometry relative="1" as="geometry">
            <mxPoint x="383" y="1780" as="targetPoint" />
          </mxGeometry>
        </mxCell>
        <mxCell id="9vx1bPAwFdFPy_VraiTr-58" value="L&#39;utente vuole aggiungere il&lt;span style=&quot;background-color: initial;&quot;&gt;&amp;nbsp;gioco ad una lista?&lt;/span&gt;" style="strokeWidth=2;html=1;shape=mxgraph.flowchart.decision;whiteSpace=wrap;" vertex="1" parent="WIyWlLk6GJQsqaUBKTNV-1">
          <mxGeometry x="324" y="1550" width="118" height="100" as="geometry" />
        </mxCell>
        <mxCell id="9vx1bPAwFdFPy_VraiTr-60" value="No" style="text;html=1;align=center;verticalAlign=middle;resizable=0;points=[];autosize=1;strokeColor=none;fillColor=none;" vertex="1" parent="WIyWlLk6GJQsqaUBKTNV-1">
          <mxGeometry x="460" y="1568" width="40" height="30" as="geometry" />
        </mxCell>
        <mxCell id="9vx1bPAwFdFPy_VraiTr-62" value="Si" style="text;html=1;align=center;verticalAlign=middle;resizable=0;points=[];autosize=1;strokeColor=none;fillColor=none;" vertex="1" parent="WIyWlLk6GJQsqaUBKTNV-1">
          <mxGeometry x="385" y="1648" width="30" height="30" as="geometry" />
        </mxCell>
        <mxCell id="9vx1bPAwFdFPy_VraiTr-68" style="edgeStyle=orthogonalEdgeStyle;rounded=0;orthogonalLoop=1;jettySize=auto;html=1;exitX=0.5;exitY=1;exitDx=0;exitDy=0;" edge="1" parent="WIyWlLk6GJQsqaUBKTNV-1" source="9vx1bPAwFdFPy_VraiTr-63" target="9vx1bPAwFdFPy_VraiTr-65">
          <mxGeometry relative="1" as="geometry">
            <mxPoint x="680" y="1890" as="targetPoint" />
            <Array as="points">
              <mxPoint x="670" y="1880" />
              <mxPoint x="383" y="1880" />
            </Array>
          </mxGeometry>
        </mxCell>
        <mxCell id="9vx1bPAwFdFPy_VraiTr-63" value="Nessuna richiesta" style="rounded=1;whiteSpace=wrap;html=1;fontSize=12;glass=0;strokeWidth=1;shadow=0;" vertex="1" parent="WIyWlLk6GJQsqaUBKTNV-1">
          <mxGeometry x="610" y="1580" width="120" height="40" as="geometry" />
        </mxCell>
        <mxCell id="9vx1bPAwFdFPy_VraiTr-69" style="edgeStyle=orthogonalEdgeStyle;rounded=0;orthogonalLoop=1;jettySize=auto;html=1;exitX=0.5;exitY=1;exitDx=0;exitDy=0;" edge="1" parent="WIyWlLk6GJQsqaUBKTNV-1" source="9vx1bPAwFdFPy_VraiTr-64">
          <mxGeometry relative="1" as="geometry">
            <mxPoint x="383" y="1890" as="targetPoint" />
          </mxGeometry>
        </mxCell>
        <mxCell id="9vx1bPAwFdFPy_VraiTr-64" value="Manda nome del gioco al database e aggiungo riga" style="rounded=1;whiteSpace=wrap;html=1;fontSize=12;glass=0;strokeWidth=1;shadow=0;" vertex="1" parent="WIyWlLk6GJQsqaUBKTNV-1">
          <mxGeometry x="323" y="1780" width="120" height="40" as="geometry" />
        </mxCell>
        <mxCell id="9vx1bPAwFdFPy_VraiTr-75" style="edgeStyle=orthogonalEdgeStyle;rounded=0;orthogonalLoop=1;jettySize=auto;html=1;exitX=1;exitY=0.5;exitDx=0;exitDy=0;exitPerimeter=0;" edge="1" parent="WIyWlLk6GJQsqaUBKTNV-1" source="9vx1bPAwFdFPy_VraiTr-65">
          <mxGeometry relative="1" as="geometry">
            <mxPoint x="620" y="1939.6470588235293" as="targetPoint" />
          </mxGeometry>
        </mxCell>
        <mxCell id="9vx1bPAwFdFPy_VraiTr-65" value="L&#39;utente vuole una&amp;nbsp;&lt;div&gt;pagina delle&lt;/div&gt;&lt;div&gt;informazioni&lt;/div&gt;&lt;div&gt;aggiuntive?&lt;/div&gt;" style="strokeWidth=2;html=1;shape=mxgraph.flowchart.decision;whiteSpace=wrap;" vertex="1" parent="WIyWlLk6GJQsqaUBKTNV-1">
          <mxGeometry x="275" y="1890" width="216" height="100" as="geometry" />
        </mxCell>
        <mxCell id="9vx1bPAwFdFPy_VraiTr-70" value="Manda una richiesta&lt;div&gt;all&#39;API in base all&#39;informazione&lt;/div&gt;" style="rounded=1;whiteSpace=wrap;html=1;fontSize=12;glass=0;strokeWidth=1;shadow=0;" vertex="1" parent="WIyWlLk6GJQsqaUBKTNV-1">
          <mxGeometry x="320" y="2070" width="120" height="40" as="geometry" />
        </mxCell>
        <mxCell id="9vx1bPAwFdFPy_VraiTr-74" style="edgeStyle=orthogonalEdgeStyle;rounded=0;orthogonalLoop=1;jettySize=auto;html=1;exitX=0.5;exitY=1;exitDx=0;exitDy=0;exitPerimeter=0;entryX=0.532;entryY=0.055;entryDx=0;entryDy=0;entryPerimeter=0;" edge="1" parent="WIyWlLk6GJQsqaUBKTNV-1" source="9vx1bPAwFdFPy_VraiTr-65" target="9vx1bPAwFdFPy_VraiTr-70">
          <mxGeometry relative="1" as="geometry" />
        </mxCell>
        <mxCell id="9vx1bPAwFdFPy_VraiTr-77" value="Nessuna Richiesta" style="rounded=1;whiteSpace=wrap;html=1;fontSize=12;glass=0;strokeWidth=1;shadow=0;" vertex="1" parent="WIyWlLk6GJQsqaUBKTNV-1">
          <mxGeometry x="620" y="1920" width="120" height="40" as="geometry" />
        </mxCell>
        <mxCell id="9vx1bPAwFdFPy_VraiTr-78" value="No" style="text;html=1;align=center;verticalAlign=middle;resizable=0;points=[];autosize=1;strokeColor=none;fillColor=none;" vertex="1" parent="WIyWlLk6GJQsqaUBKTNV-1">
          <mxGeometry x="520" y="1908" width="40" height="30" as="geometry" />
        </mxCell>
        <mxCell id="9vx1bPAwFdFPy_VraiTr-79" value="Si" style="text;html=1;align=center;verticalAlign=middle;resizable=0;points=[];autosize=1;strokeColor=none;fillColor=none;" vertex="1" parent="WIyWlLk6GJQsqaUBKTNV-1">
          <mxGeometry x="375" y="1998" width="30" height="30" as="geometry" />
        </mxCell>
        <mxCell id="9vx1bPAwFdFPy_VraiTr-81" value="" style="strokeWidth=2;html=1;shape=mxgraph.flowchart.start_2;whiteSpace=wrap;fillColor=#FFFFFF;" vertex="1" parent="WIyWlLk6GJQsqaUBKTNV-1">
          <mxGeometry x="-50" y="1770" width="100" height="100" as="geometry" />
        </mxCell>
        <mxCell id="9vx1bPAwFdFPy_VraiTr-82" value="" style="strokeWidth=2;html=1;shape=mxgraph.flowchart.start_2;whiteSpace=wrap;fillColor=#FFFFFF;" vertex="1" parent="WIyWlLk6GJQsqaUBKTNV-1">
          <mxGeometry x="330" y="2210" width="100" height="100" as="geometry" />
        </mxCell>
        <mxCell id="9vx1bPAwFdFPy_VraiTr-83" style="edgeStyle=orthogonalEdgeStyle;rounded=0;orthogonalLoop=1;jettySize=auto;html=1;exitX=0.5;exitY=1;exitDx=0;exitDy=0;entryX=0.5;entryY=0;entryDx=0;entryDy=0;entryPerimeter=0;" edge="1" parent="WIyWlLk6GJQsqaUBKTNV-1" source="9vx1bPAwFdFPy_VraiTr-70" target="9vx1bPAwFdFPy_VraiTr-82">
          <mxGeometry relative="1" as="geometry" />
        </mxCell>
        <mxCell id="9vx1bPAwFdFPy_VraiTr-84" style="edgeStyle=orthogonalEdgeStyle;rounded=0;orthogonalLoop=1;jettySize=auto;html=1;exitX=0.5;exitY=1;exitDx=0;exitDy=0;entryX=0.5;entryY=0;entryDx=0;entryDy=0;entryPerimeter=0;" edge="1" parent="WIyWlLk6GJQsqaUBKTNV-1" source="9vx1bPAwFdFPy_VraiTr-77" target="9vx1bPAwFdFPy_VraiTr-82">
          <mxGeometry relative="1" as="geometry">
            <Array as="points">
              <mxPoint x="680" y="2210" />
            </Array>
          </mxGeometry>
        </mxCell>
      </root>
    </mxGraphModel>
  </diagram>
</mxfile>
